# xmcd CD database file
#
# Track frame offsets:
#	150
#	26876
#	42225
#	59292
#	90979
#	106251
#	120615
#	139651
#	154085
#	171801
#	185580
#	200171
#	216307
#	239477
#
# Disc length: 3310 seconds
#
# Revision: 0
# Processed by: cddbd v1.4PL0 Copyright (c) Steve Scherf et al.
# Submitted via: CDex 1.50beta9
#
DISCID=c80cec0e
DTITLE=Ella Fitzgerald and Louis Armstrong - A Fine Romance CD 2
DYEAR=1900
DGENRE=Blues
TTITLE0=Cheek To Cheek
TTITLE1=Ain't Misbehavin
TTITLE2=Can'tWe Be Friends
TTITLE3=How High The Moon
TTITLE4=I'm Putting All My Eggs In One Basket
TTITLE5=Love You're Just a Laugh
TTITLE6=Let's Call The Whole Thing Off
TTITLE7=Holiday In Harlem
TTITLE8=Love Is Here To Stay
TTITLE9=Sing Song Swing
TTITLE10=Stars Fell On Alabama
TTITLE11=I Can't Give You AnyThing But Love
TTITLE12=Tenderly
TTITLE13=Lover Come Back To Me
EXTD=
EXTT0=
EXTT1=
EXTT2=
EXTT3=
EXTT4=
EXTT5=
EXTT6=
EXTT7=
EXTT8=
EXTT9=
EXTT10=
EXTT11=
EXTT12=
EXTT13=
PLAYORDER=
